<svg id="Capa_1" enable-background="new 0 0 510 510" height="512" viewBox="0 0 510 510" width="512" xmlns="http://www.w3.org/2000/svg"><g><path d="m495.407 234.888c-17.856-17.208-45.474-17.967-64.244-1.759l-75.763 65.409c-6.585-16.691-22.864-28.538-41.868-28.538h-84.991c-1.247-.377-38.922-22.574-89.473-11.475-17.728 3.894-34.431 11.391-49.069 21.839v-40.364h-89.999v270h90v-32.273l260.323-42.973 143.947-130.144c9.778-8.826 15.509-21.442 15.724-34.613s-5.102-25.968-14.587-35.109zm-435.407 245.112h-30v-210h30zm414.159-197.651-137.418 124.241-246.741 40.73v-126.84c30.845-34.857 82.23-45.095 124.198-24.111l7.261 3.631h92.074c8.271 0 15 6.729 15 15 0 3.978-1.567 7.59-4.104 10.277l-2.391 2.064c-2.419 1.672-5.349 2.658-8.506 2.658h-124.246v30h124.247c12.107 0 23.104-4.815 31.2-12.619l106.036-91.545c6.96-6.01 17.2-5.728 23.82.653 7.372 7.107 7.217 18.959-.43 25.861z"/><path d="m390 0h-210v210h210zm-120 30h30v30h-30zm90 150h-150v-30h30v-30h-30v-90h30v60h90v-60h30z"/></g></svg>