<svg height="456pt" viewBox="-16 0 456 456.24" width="456pt" xmlns="http://www.w3.org/2000/svg"><path d="m376.519531 177.839844c-4.335937-20.128906-12.402343-39.265625-23.785156-56.421875-1.703125-2.570313-1.523437-5.957031.445313-8.332031l26.492187-31.992188-36.539063-36.542969-31.992187 26.5c-2.363281 1.957031-5.730469 2.148438-8.296875.464844-17.230469-11.304687-36.375-19.375-56.496094-23.820313-2.960937-.65625-5.160156-3.144531-5.453125-6.164062l-4-41.53125h-49.539062l-4 41.53125c-.289063 3.019531-2.492188 5.507812-5.453125 6.164062-20.121094 4.445313-39.261719 12.515626-56.492188 23.820313-2.566406 1.683594-5.933594 1.492187-8.300781-.464844l-31.988281-26.5-36.546875 36.539063 26.5 31.992187c1.96875 2.375 2.152343 5.757813.449219 8.328125-11.382813 17.160156-19.449219 36.300782-23.777344 56.429688-.632813 2.976562-3.121094 5.195312-6.148438 5.488281l-41.476562 4v51.863281l41.476562 4c3.007813.292969 5.480469 2.5 6.113282 5.453125 4.445312 20.121094 12.515624 39.265625 23.816406 56.496094 1.683594 2.570313 1.496094 5.933594-.464844 8.300781l-26.238281 31.683594 23.589843 20.863281 41.882813-60.101562c-49.3125-53.679688-47.949219-137.476563 4.070313-189.5 53.417968-53.414063 140.332031-53.414063 193.75 0 52 52 53.382812 135.746093 4.136718 189.429687l43.46875 60.25 23.6875-20.941406-26.238281-31.679688c-1.960937-2.363281-2.152344-5.726562-.472656-8.296874 11.296875-17.234376 19.363281-36.378907 23.800781-56.5.648438-2.957032 3.125-5.164063 6.140625-5.457032l41.476563-4v-51.863281l-41.476563-4c-3.023437-.292969-5.5-2.515625-6.121094-5.488281zm0 0"/><path d="m230 366.40625c-2.957031-.890625-4.976562-3.613281-4.976562-6.699219v-131.960937c0-2.703125 1.554687-5.164063 4-6.320313 17.308593-8.226562 29.398437-26.886719 29.398437-45.378906 0-20.511719-9.570313-35.742187-26.621094-43.015625l2.199219 28.289062c.175781 2.261719-.757812 4.46875-2.5 5.917969-.058594.050781-.128906.101563-.1875.152344-13.582031 10.566406-32.574219 10.675781-46.277344.269531l-.296875-.226562c-1.90625-1.449219-2.941406-3.769532-2.742187-6.152344l2.28125-27.5c-14.726563 8.171875-23.519532 23.738281-23.519532 42.722656 0 22.652344 12.796876 40.597656 33.429688 46.828125 2.945312.898438 4.949219 3.621094 4.929688 6.699219v131.503906c.019531 2.710938-1.535157 5.183594-3.980469 6.34375-14.1875 6.640625-29.308594 23.578125-29.09375 45.0625 0 20.382813 9.398437 35.691406 26.144531 43.296875l-2.167969-28.042969c-.179687-2.328124.808594-4.589843 2.640625-6.039062 13.585938-10.589844 32.597656-10.714844 46.320313-.296875l.296875.230469c1.902344 1.445312 2.933594 3.765625 2.734375 6.144531l-2.289063 27.5c14.703125-8.144531 23.5625-23.652344 23.738282-42.558594-.007813-22.59375-12.824219-40.539062-33.460938-46.769531zm0 0"/></svg>